{"title":"Get.Hard.2015.BRRip.480p.x264.AAC-VYTO [P2PDL]","uid":12036882,"size":372716221,"categoryP":"video","categoryS":"movies","magnet":"?xt=urn:btih:30d486a44c52e7b81a9617c49d73f7dcebdeea3d&amp;dn=Get.Hard.2015.BRRip.480p.x264.AAC-VYTO+%5BP2PDL%5D&amp;tr=udp%3A%2F%2Ftracker.openbittorrent.com%3A80&amp;tr=udp%3A%2F%2Fopen.demonii.com%3A1337&amp;tr=udp%3A%2F%2Ftracker.coppersurfer.tk%3A6969&amp;tr=udp%3A%2F%2Fexodus.desync.com%3A6969","seeders":7,"leechers":3,"uploader":"ValidusVyto","files":7,"time":1434698649,"description":"Get.Hard.2015.BRRip.480p.x264.AAC-VYTO\n\n\nGenre: Comedy \nIMDb: http://www.imdb.com/title/tt2561572/\n\n\nFormat                         : MPEG-4\nFile size                      : 351 MiB\nDuration                       : 1h 46mn\nOverall bit rate               : 460 Kbps\n\nVideo\nFormat                         : AVC\nBit rate                       : 425 Kbps\nWidth                          : 720 pixels\nHeight                         : 408 pixels\nDisplay aspect ratio           : 16:9\nFrame rate mode                : Constant\nFrame rate                     : 23.976 fps\nBit depth                      : 8 bits\nStream size                    : 324 MiB (92%)\nWriting library                : x264 core 146 r2538 121396c\n\nAudio\nFormat                         : AAC\nBit rate mode                  : Variable\nBit rate                       : 31.9 Kbps\nChannel(s)                     : 2 channels \nChannel positions              : Front: L R \nSampling rate                  : 48.0 KHz\nStream size                    : 24.4 MiB (7%)\nLanguage                       : English\n\nSubtitle                    : Yes(English)\nSource                      : UNRATED.720p.BluRay.x264-SPARKS\n &lt;a href=&quot;\nhttp://someimage.com/FURp9iD&quot; rel=&quot;nofollow&quot; target=&quot;_NEW&quot;&gt;\nhttp://someimage.com/FURp9iD&lt;/a&gt; &lt;a href=&quot;\nhttp://someimage.com/JoVYJX8&quot; rel=&quot;nofollow&quot; target=&quot;_NEW&quot;&gt;\nhttp://someimage.com/JoVYJX8&lt;/a&gt; &lt;a href=&quot;\nhttp://someimage.com/FIs4Zgn&quot; rel=&quot;nofollow&quot; target=&quot;_NEW&quot;&gt;\nhttp://someimage.com/FIs4Zgn&lt;/a&gt; &lt;a href=&quot;\nhttp://someimage.com/JC2jjxb&quot; rel=&quot;nofollow&quot; target=&quot;_NEW&quot;&gt;\nhttp://someimage.com/JC2jjxb&lt;/a&gt; &lt;a href=&quot;\nhttp://someimage.com/u6OWy0l&quot; rel=&quot;nofollow&quot; target=&quot;_NEW&quot;&gt;\nhttp://someimage.com/u6OWy0l&lt;/a&gt; &lt;a href=&quot;\nhttp://someimage.com/W8bbEIY&quot; rel=&quot;nofollow&quot; target=&quot;_NEW&quot;&gt;\nhttp://someimage.com/W8bbEIY&lt;/a&gt; &lt;a href=&quot;\nhttp://someimage.com/Go8kTqn&quot; rel=&quot;nofollow&quot; target=&quot;_NEW&quot;&gt;\nhttp://someimage.com/Go8kTqn&lt;/a&gt; &lt;a href=&quot;\nhttp://someimage.com/N8NEllw&quot; rel=&quot;nofollow&quot; target=&quot;_NEW&quot;&gt;\nhttp://someimage.com/N8NEllw&lt;/a&gt; &lt;a href=&quot;\nhttp://someimage.com/E3i2GOh&quot; rel=&quot;nofollow&quot; target=&quot;_NEW&quot;&gt;\nhttp://someimage.com/E3i2GOh&lt;/a&gt;\n\n----------------------------------------------------------------------------------------------------\n\n\nEncoder Notes: Looking For Early Access To Anything You Can Provide DVDScr, R5, DVDR, BluRay, Direct\nAudio, Music Releases and Seedboxes. If You Got anything to offer please contact us.\n\nWe require dedicated servers, so as to do more and fast releases of movies.\nSupport us by donating BC - 1FgwdzPsd1y25Gea8wP1qni35uGCtmkRCD","torrent":{"xt":"urn:btih:30d486a44c52e7b81a9617c49d73f7dcebdeea3d","amp;dn":"Get.Hard.2015.BRRip.480p.x264.AAC-VYTO+%5BP2PDL%5D","amp;tr":["udp%3A%2F%2Ftracker.openbittorrent.com%3A80","udp%3A%2F%2Fopen.demonii.com%3A1337","udp%3A%2F%2Ftracker.coppersurfer.tk%3A6969","udp%3A%2F%2Fexodus.desync.com%3A6969"],"infoHash":"30d486a44c52e7b81a9617c49d73f7dcebdeea3d","infoHashBuffer":{"type":"Buffer","data":[48,212,134,164,76,82,231,184,26,150,23,196,157,115,247,220,235,222,234,61]},"announce":[],"urlList":[]}}